<?xml version="1.0" encoding="UTF-8"?>
<svg version="1.1" xmlns="http://www.w3.org/2000/svg" width="512" height="512">
<path d="M0 0 C1.42216576 -0.01226624 1.42216576 -0.01226624 2.87306213 -0.02478027 C6.01977908 -0.04965237 9.16645089 -0.06615433 12.31323242 -0.08056641 C13.38634863 -0.08589008 14.45946484 -0.09121376 15.56509972 -0.09669876 C21.24423891 -0.12343733 26.92335605 -0.1428106 32.60253906 -0.15722656 C38.47405974 -0.17388249 44.34502 -0.21866659 50.21632862 -0.26959801 C54.72617757 -0.30322142 59.23589266 -0.31479861 63.74585533 -0.32045364 C65.91044082 -0.32717892 68.0750171 -0.34243389 70.23948097 -0.36634445 C73.26819428 -0.39789502 76.29538486 -0.39804779 79.32421875 -0.390625 C80.21947266 -0.40703033 81.11472656 -0.42343567 82.03710938 -0.44033813 C86.47513009 -0.39578235 88.2705686 -0.27181242 91.85502625 2.57235718 C93.73651559 5.0361443 95.29785301 7.51721671 96.85620117 10.19287109 C101.54453438 15.86140809 106.70303437 21.091946 111.94213867 26.24755859 C114.49181103 28.83885825 116.85987489 31.56611887 119.21557617 34.33349609 C120.02768555 35.25388672 120.02768555 35.25388672 120.85620117 36.19287109 C121.35497269 36.86149673 121.8537442 37.53012238 122.36763 38.2190094 C126.07361385 41.15848714 129.6951154 41.19283477 134.31396484 41.6340332 C135.28328131 41.7407925 136.25259777 41.8475518 137.25128746 41.95754623 C140.50735486 42.31186184 143.76548742 42.64088788 147.02416992 42.97021484 C149.35766345 43.21906146 151.69098855 43.46949187 154.02415466 43.72138977 C160.37092088 44.40227898 166.71976581 45.0616243 173.06916046 45.71748352 C179.03833277 46.33757959 185.0057344 46.97416558 190.97312164 47.61115956 C202.10802375 48.79947538 213.2440922 49.97636583 224.38113213 51.14446521 C249.37422437 53.7659683 274.36032819 56.45233025 299.34640026 59.139781 C307.40328087 60.00613539 315.46061828 60.86808225 323.51837635 61.7262373 C328.53039292 62.2602044 333.54222662 62.79587486 338.55403328 63.33180809 C340.88319571 63.58044356 343.21244206 63.82829432 345.54177666 64.07531166 C348.71793687 64.41222615 351.89378756 64.75192485 355.06958008 65.09228516 C355.9963515 65.18985579 356.92312292 65.28742643 357.87797832 65.38795376 C361.91811331 65.82355295 365.88790959 66.28668689 369.85620117 67.19287109 C369.79356079 67.89586838 369.73092041 68.59886566 369.66638184 69.32316589 C369.07554437 75.95839795 368.48681815 82.59381358 367.90044403 89.22944164 C367.59893258 92.64061414 367.29661428 96.05171106 366.99243164 99.46264648 C366.64251418 103.38683105 366.29614275 107.31132475 365.94995117 111.23583984 C365.84058228 112.45683884 365.73121338 113.67783783 365.61853027 114.93583679 C365.51842651 116.076642 365.41832275 117.2174472 365.31518555 118.39282227 C365.22636108 119.39431808 365.13753662 120.3958139 365.04602051 121.42765808 C364.86758389 124.02705216 364.82124823 126.58844922 364.85620117 129.19287109 C366.09370117 129.15162109 367.33120117 129.11037109 368.60620117 129.06787109 C386.47649653 129.1516381 401.28027627 135.81022939 414.10620117 148.00537109 C426.85833498 161.19723366 431.27572054 176.56713694 431.22192383 194.46728516 C431.08448584 202.38320907 430.14401777 208.91051096 426.85620117 216.19287109 C426.43209961 217.14033203 426.00799805 218.08779297 425.57104492 219.06396484 C422.06445516 226.10644735 417.38041643 231.64008231 411.85620117 237.19287109 C410.9512793 238.15 410.9512793 238.15 410.02807617 239.12646484 C399.62683314 249.27898249 383.81647041 253.99561651 369.60620117 254.38037109 C352.31071357 254.08421548 336.56409584 247.60701103 324.14526367 235.56396484 C314.85620117 225.47826753 314.85620117 225.47826753 314.85620117 221.19287109 C262.05620117 221.19287109 209.25620117 221.19287109 154.85620117 221.19287109 C154.85620117 235.05287109 154.85620117 248.91287109 154.85620117 263.19287109 C156.83620117 263.52287109 158.81620117 263.85287109 160.85620117 264.19287109 C166.87723684 267.28909762 170.76881119 271.75217437 172.85620117 278.19287109 C172.85620117 279.18287109 172.85620117 280.17287109 172.85620117 281.19287109 C196.61620117 281.19287109 220.37620117 281.19287109 244.85620117 281.19287109 C245.18620117 279.21287109 245.51620117 277.23287109 245.85620117 275.19287109 C249.25694093 269.12012153 253.2641776 265.42196577 259.85620117 263.19287109 C267.20327083 262.32135662 273.82010386 262.62728473 279.85620117 267.19287109 C282.83640383 270.04349973 285.42662348 273.29402284 286.85620117 277.19287109 C286.85620117 278.51287109 286.85620117 279.83287109 286.85620117 281.19287109 C293.12620117 281.19287109 299.39620117 281.19287109 305.85620117 281.19287109 C306.18620117 279.21287109 306.51620117 277.23287109 306.85620117 275.19287109 C310.25694093 269.12012153 314.2641776 265.42196577 320.85620117 263.19287109 C328.20327083 262.32135662 334.82010386 262.62728473 340.85620117 267.19287109 C344.81198694 270.97666618 347.58640356 274.88681153 348.22729492 280.36474609 C348.36944693 288.02423087 348.15708765 293.41644335 342.85620117 299.19287109 C342.39858398 299.69431641 341.9409668 300.19576172 341.46948242 300.71240234 C334.36186525 307.46950688 324.39443517 306.47519246 315.29016113 306.43338013 C313.91382216 306.43425319 312.53748352 306.43600602 311.16114664 306.43855846 C307.39385598 306.44301623 303.62667971 306.43505 299.85940361 306.42500234 C295.79134001 306.41634743 291.72328262 306.41928944 287.6552124 306.42080688 C280.61189756 306.42185445 273.56861984 306.41559131 266.52531433 306.40433121 C256.34194237 306.38806171 246.15858832 306.38286672 235.97520477 306.38035522 C219.45245382 306.3759804 202.92972264 306.36267706 186.40698242 306.34375 C170.35880634 306.32538571 154.31063564 306.31123189 138.26245117 306.30273438 C137.27287043 306.30220893 136.28328968 306.30168348 135.26372164 306.30114211 C130.2991751 306.29853199 125.33462851 306.29600459 120.3700819 306.2935183 C79.19877457 306.27279242 38.027489 306.23757267 -3.14379883 306.19287109 C-3.14379883 303.88287109 -3.14379883 301.57287109 -3.14379883 299.19287109 C21.60620117 298.86287109 46.35620117 298.53287109 71.85620117 298.19287109 C70.53620117 295.88287109 69.21620117 293.57287109 67.85620117 291.19287109 C65.91926159 284.86341826 66.92411797 279.03571326 69.85620117 273.19287109 C73.27625091 267.86131319 76.82040729 265.05848011 82.85620117 263.19287109 C84.52236947 263.1521159 86.19023779 263.14445848 87.85620117 263.19287109 C90.16499347 226.91338514 82.54013862 195.09453615 72.37010193 160.72563171 C68.33450599 147.05193784 64.59636922 133.30549865 60.91479492 119.53271484 C60.32334053 117.32345263 59.73187428 115.11419359 59.14039612 112.90493774 C57.08485736 105.22213619 55.03296954 97.53835953 52.98164749 89.85443115 C51.31290247 83.60689465 49.6367505 77.36143673 47.94973946 71.11880684 C47.43356239 69.20316873 46.92023857 67.28675927 46.40992546 65.3695507 C45.70764807 62.73180008 44.99596799 60.09675975 44.28198242 57.4621582 C44.07945893 56.6922757 43.87693544 55.92239319 43.66827488 55.12918091 C41.68595458 47.89247698 38.3069008 43.32853711 33.23120117 37.94287109 C32.74780273 37.42080078 32.2644043 36.89873047 31.76635742 36.36083984 C30.73196265 35.25160514 29.68363953 34.15524128 28.6237793 33.0703125 C26.85620117 31.19287109 26.85620117 31.19287109 24.91674805 28.79589844 C21.82076638 25.20685828 19.47629732 22.59422888 14.78149414 21.43115234 C11.3583369 21.19323006 8.03498348 21.19403245 4.60620117 21.31787109 C2.30948569 21.35367735 0.01254625 21.37757403 -2.28442383 21.38818359 C-3.79311035 21.43483154 -3.79311035 21.43483154 -5.33227539 21.48242188 C-8.64750366 21.14099597 -10.45766482 20.12430681 -13.14379883 18.19287109 C-15.48492892 15.18284669 -15.5559649 11.91545567 -15.47192383 8.16162109 C-14.95327115 5.04970505 -13.35825108 3.3421924 -11.14379883 1.19287109 C-7.7144253 -0.52181567 -3.77519162 0.01784273 0 0 Z M91.85620117 17.19287109 C91.31916565 17.6789534 90.78213013 18.16503571 90.2288208 18.66584778 C87.25304061 20.58106658 85.41763761 20.58823416 81.89428711 20.62524414 C80.69334412 20.6450383 79.49240112 20.66483246 78.25506592 20.68522644 C76.31739349 20.69481133 76.31739349 20.69481133 74.34057617 20.70458984 C73.00106156 20.72144117 71.66156271 20.73959203 70.32208252 20.75898743 C66.8040459 20.80644505 63.28607322 20.83628137 59.76782227 20.86242676 C56.17475762 20.89225398 52.5819132 20.93877679 48.98901367 20.98388672 C41.94486897 21.0698712 34.90065625 21.13723787 27.85620117 21.19287109 C28.23480789 21.6182869 28.61341461 22.0437027 29.00349426 22.48200989 C31.59832691 25.44540319 33.99954197 28.3312373 36.06201172 31.69165039 C39.80679298 37.1322775 43.7053709 40.57764119 50.32745361 41.8706665 C59.96523251 42.76693069 69.61139417 42.44276206 79.27105713 42.08551025 C83.28617465 41.95130845 87.30236704 41.89289778 91.3190918 41.82763672 C99.16774141 41.68917493 107.01115847 41.46803386 114.85620117 41.19287109 C110.39243235 35.94770587 105.8166567 30.84297394 101.10620117 25.81787109 C100.43459961 25.09470703 99.76299805 24.37154297 99.07104492 23.62646484 C98.42780273 22.93939453 97.78456055 22.25232422 97.12182617 21.54443359 C96.25219238 20.6136499 96.25219238 20.6136499 95.36499023 19.6640625 C93.90351699 18.08976473 93.90351699 18.08976473 91.85620117 17.19287109 Z M94.85620117 221.19287109 C94.85620117 235.38287109 94.85620117 249.57287109 94.85620117 264.19287109 C98.81620117 266.17287109 98.81620117 266.17287109 102.85620117 268.19287109 C106.78028112 272.79939972 107.87493288 275.24906621 109.85620117 281.19287109 C116.78620117 281.19287109 123.71620117 281.19287109 130.85620117 281.19287109 C131.84620117 278.55287109 132.83620117 275.91287109 133.85620117 273.19287109 C137.95775419 266.91990765 140.2431659 266.57644233 147.85620117 263.19287109 C147.85620117 249.33287109 147.85620117 235.47287109 147.85620117 221.19287109 C130.36620117 221.19287109 112.87620117 221.19287109 94.85620117 221.19287109 Z M109.85620117 288.19287109 C108.20620117 291.82287109 106.55620117 295.45287109 104.85620117 299.19287109 C115.08620117 299.19287109 125.31620117 299.19287109 135.85620117 299.19287109 C134.53620117 296.55287109 133.21620117 293.91287109 131.85620117 291.19287109 C131.52620117 290.20287109 131.19620117 289.21287109 130.85620117 288.19287109 C123.92620117 288.19287109 116.99620117 288.19287109 109.85620117 288.19287109 Z M172.85620117 288.19287109 C171.20620117 291.82287109 169.55620117 295.45287109 167.85620117 299.19287109 C194.91620117 299.19287109 221.97620117 299.19287109 249.85620117 299.19287109 C248.20620117 295.56287109 246.55620117 291.93287109 244.85620117 288.19287109 C221.09620117 288.19287109 197.33620117 288.19287109 172.85620117 288.19287109 Z M286.85620117 288.19287109 C285.20620117 291.82287109 283.55620117 295.45287109 281.85620117 299.19287109 C291.42620117 299.19287109 300.99620117 299.19287109 310.85620117 299.19287109 C309.20620117 295.56287109 307.55620117 291.93287109 305.85620117 288.19287109 C299.58620117 288.19287109 293.31620117 288.19287109 286.85620117 288.19287109 Z " fill="#5F6276" transform="translate(48.143798828125,141.80712890625)"/>
<path d="M0 0 C7.27481218 -0.12865538 14.34841788 0.19501204 21.57421875 1.0234375 C23.02547905 1.18279282 23.02547905 1.18279282 24.50605774 1.34536743 C27.56718697 1.68300501 30.62730889 2.02897475 33.6875 2.375 C35.71804132 2.59948032 37.74864001 2.82344231 39.77929688 3.046875 C49.74487969 4.14963034 59.70020683 5.30604006 69.64208984 6.60595703 C74.15362447 7.13537516 78.66929269 7.4192171 83.2015686 7.70791626 C87.06589119 8.00506676 90.90324112 8.42901355 94.74902344 8.90039062 C104.18487502 10.03280747 113.63003572 11.06923014 123.078125 12.09375 C124.86440309 12.28785618 126.65067825 12.48198927 128.43695068 12.67614746 C132.15468666 13.08004315 135.87248773 13.48333321 139.59033203 13.88623047 C143.35639045 14.29442397 147.12233807 14.70361662 150.88818359 15.11376953 C176.306425 17.90244252 176.306425 17.90244252 201.75370789 20.40708923 C208.04218012 20.98880188 214.30356934 21.71814747 220.5625 22.5625 C221.53123047 22.68818359 222.49996094 22.81386719 223.49804688 22.94335938 C227.39888067 23.45968595 231.19446256 23.98072764 235 25 C235.47000703 36.96559561 234.08511318 48.85016826 233 60.75 C232.80680812 62.91141517 232.61409566 65.07287324 232.421875 67.234375 C231.95344706 72.49009117 231.47908789 77.74524539 231 83 C229.98462158 83.32323242 228.96924316 83.64646484 227.9230957 83.97949219 C226.56971986 84.41829805 225.21645417 84.85744378 223.86328125 85.296875 C223.19655396 85.50812012 222.52982666 85.71936523 221.84289551 85.93701172 C206.03583526 91.10442535 194.61734066 102.53936715 187 117 C182.95334427 125.44949632 181.65078841 133.39946818 181.6875 142.6875 C181.67138672 143.48349609 181.65527344 144.27949219 181.63867188 145.09960938 C181.63244974 152.98305813 183.2552851 158.85799715 185 167 C132.86 167 80.72 167 27 167 C24.958125 154.439375 22.91625 141.87875 20.8125 128.9375 C16.95408688 105.21144675 13.08750845 81.48685749 9.17578125 57.76953125 C8.94838855 56.39039456 8.94838855 56.39039456 8.71640205 54.98339653 C7.25728364 46.1341455 5.79675794 37.28513103 4.33155727 28.43688488 C3.79579762 25.19976865 3.26125931 21.96245152 2.72699547 18.72508812 C2.47903798 17.22455324 2.23049504 15.72411498 1.98133278 14.22377968 C1.64318497 12.18750636 1.30695715 10.15092504 0.97119141 8.11425781 C0.6881163 6.4048703 0.6881163 6.4048703 0.39932251 4.66094971 C0 2 0 2 0 0 Z " fill="#F4F4F4" transform="translate(175,190)"/>
<path d="M0 0 C23.76 0 47.52 0 72 0 C75.52288976 21.46110294 79.04380579 42.92252662 82.56108856 64.38454914 C84.19421294 74.34927155 85.82823476 84.31384526 87.46435547 94.27807617 C88.89006058 102.96085737 90.31409602 111.64391045 91.73611021 120.32729691 C92.48941284 124.92689519 93.24356233 129.52635107 93.99971008 134.12548256 C94.71092214 138.45146536 95.4199066 142.77780725 96.12716103 147.10443878 C96.38755544 148.69491045 96.64877359 150.28524751 96.91086388 151.8754406 C97.26777025 154.04167284 97.62174646 156.20836394 97.97497559 158.37519836 C98.17408287 159.58919972 98.37319016 160.80320108 98.57833099 162.05399036 C99 165 99 165 99 168 C81.18 168 63.36 168 45 168 C42.65856788 160.39034562 40.39934758 152.96093306 38.5625 145.25 C37.02641849 138.94824944 35.37908371 132.70812133 33.5 126.5 C31.64685174 120.37353094 30.01883285 114.21766639 28.5 108 C27.00129616 101.86517338 25.39733497 95.79283031 23.5625 89.75 C21.48890498 82.90500379 19.71022587 76.00675684 18 69.0625 C16.09998805 61.34821098 14.12763923 53.66932858 11.96923828 46.0234375 C9.74330906 38.13263353 7.62318853 30.21392271 5.49829102 22.29541016 C5.07761353 20.72799072 5.07761353 20.72799072 4.6484375 19.12890625 C4.37612305 18.11199707 4.10380859 17.09508789 3.82324219 16.04736328 C3.26366342 13.97599253 2.69631712 11.90670783 2.12207031 9.83935547 C1.84717773 8.8495166 1.57228516 7.85967773 1.2890625 6.83984375 C1.0410791 5.95546631 0.7930957 5.07108887 0.53759766 4.15991211 C0 2 0 2 0 0 Z " fill="#F4F4F4" transform="translate(97,189)"/>
<path d="M0 0 C13.99759308 9.27747449 23.81819993 21.61565249 27.30859375 38.27734375 C29.42164754 55.2035581 25.53233909 70.4018109 15.6875 84.3125 C6.57377515 95.38918098 -6.19695642 102.11400922 -20.3125 104.3125 C-30.89217532 105.10186438 -40.52266904 104.7878513 -50.3125 100.3125 C-51.09753906 99.961875 -51.88257813 99.61125 -52.69140625 99.25 C-59.13179818 96.02420369 -64.20273485 91.3261841 -69.3125 86.3125 C-69.89128906 85.75820313 -70.47007812 85.20390625 -71.06640625 84.6328125 C-81.98858485 73.16880259 -84.00417468 57.65481446 -83.6875 42.59765625 C-82.95306183 27.91151594 -75.04834827 16.2970991 -64.6953125 6.34765625 C-46.75329402 -8.97659232 -20.65026434 -11.52946329 0 0 Z " fill="#F3F3F2" transform="translate(445.3125,284.6875)"/>
<path d="M0 0 C5.29012124 4.40843437 10.18808428 9.07559794 15 14 C19.32504836 12.34136495 22.09418825 9.128959 25.25 5.875 C25.80429687 5.31167969 26.35859375 4.74835938 26.9296875 4.16796875 C28.29104485 2.78313972 29.64614859 1.39216796 31 0 C36.66129431 4.69766975 41.85228904 9.74723372 47 15 C45.387672 19.03082 42.53765404 21.75944137 39.5 24.75 C39.00113281 25.25660156 38.50226563 25.76320313 37.98828125 26.28515625 C34.25341139 30 34.25341139 30 32 30 C36.76008307 35.5930976 41.74595676 40.86877855 47 46 C42.30233025 51.66129431 37.25276628 56.85228904 32 62 C27.30982258 58.09151881 22.94933947 54.02043854 18.69921875 49.63671875 C17.08328716 47.91730963 17.08328716 47.91730963 15 47 C14.78601563 47.54140625 14.57203125 48.0828125 14.3515625 48.640625 C12.51922057 51.8392797 10.00203394 54.20964484 7.375 56.75 C6.859375 57.25660156 6.34375 57.76320313 5.8125 58.28515625 C4.54616661 59.52803902 3.2736856 60.76465276 2 62 C-0.93230193 60.67879172 -2.98664899 59.25361803 -5.234375 56.9609375 C-5.80800781 56.38085938 -6.38164062 55.80078125 -6.97265625 55.203125 C-7.55917969 54.59984375 -8.14570313 53.9965625 -8.75 53.375 C-9.35199219 52.76398438 -9.95398438 52.15296875 -10.57421875 51.5234375 C-12.05405305 50.02011376 -13.52764676 48.51065144 -15 47 C-10.59156563 41.70987876 -5.92440206 36.81191572 -1 32 C-2.65863505 27.67495164 -5.871041 24.90581175 -9.125 21.75 C-9.68832031 21.19570313 -10.25164062 20.64140625 -10.83203125 20.0703125 C-12.21686028 18.70895515 -13.60783204 17.35385141 -15 16 C-10.30233025 10.33870569 -5.25276628 5.14771096 0 0 Z " fill="#E18410" transform="translate(401,302)"/>
<path d="M0 0 C3.62342508 1.6470114 6.16816086 3.4327343 8 7 C8.31751918 14.16182142 7.69419134 21.32740969 7.1027832 28.46362305 C6.99252706 29.8637295 6.89487932 31.26488555 6.80981445 32.66674805 C6.00163576 45.83929099 6.00163576 45.83929099 1.64453125 50.05859375 C0.71072632 50.81064087 0.71072632 50.81064087 -0.24194336 51.57788086 C-3.01025201 53.81720844 -4.42810438 56.44869513 -6.25 59.5 C-6.89453125 60.5621875 -7.5390625 61.624375 -8.203125 62.71875 C-13.39802698 72.20509274 -15.37968448 80.96737615 -15.3125 91.6875 C-15.31056641 92.98155762 -15.31056641 92.98155762 -15.30859375 94.30175781 C-15.19592553 101.89277933 -13.92221406 108.63151277 -12 116 C-16.62 116 -21.24 116 -26 116 C-28.35059039 107.66382135 -29.52253898 100.21170036 -29.4375 91.5625 C-29.42920166 90.46574951 -29.42090332 89.36899902 -29.41235352 88.23901367 C-29.24306281 80.13053118 -28.41221182 73.43941531 -25 66 C-24.72671875 65.4009082 -24.4534375 64.80181641 -24.171875 64.18457031 C-19.02993142 53.06060685 -19.02993142 53.06060685 -16.41796875 50.37084961 C-14.24068948 46.73042968 -14.5982133 43.23436414 -14.62890625 39.0703125 C-14.61152229 37.28775851 -14.59393792 35.50520647 -14.57617188 33.72265625 C-14.56610698 30.922652 -14.56250136 28.12277549 -14.56420898 25.32275391 C-14.56062937 22.61322278 -14.53325042 19.90466905 -14.50390625 17.1953125 C-14.51208878 16.36387726 -14.5202713 15.53244202 -14.52870178 14.67581177 C-14.46044484 9.31985066 -13.57990993 6.23459847 -10 2 C-6.27420911 -0.48386059 -4.41288598 -0.3804212 0 0 Z " fill="#A9AFC4" transform="translate(372,241)"/>
<path d="M0 0 C3.75212276 2.01502889 5.63644095 3.45466142 8 7 C8.20528081 9.90816828 8.29368963 12.72136189 8.29052734 15.63061523 C8.30060318 16.95299698 8.30060318 16.95299698 8.31088257 18.30209351 C8.32990547 21.22098399 8.3337888 24.13964511 8.3359375 27.05859375 C8.342362 29.084967 8.34909009 31.1113393 8.35610962 33.13771057 C8.36809281 37.38715771 8.37178933 41.63652348 8.37060547 45.88598633 C8.37040212 51.33491592 8.39771621 56.78332488 8.43214989 62.232131 C8.45437066 66.41769311 8.45844451 70.60312891 8.45738602 74.78874397 C8.45974879 76.79782978 8.46861021 78.80691872 8.48405075 80.81594658 C8.50361501 83.62433383 8.49791067 86.43158526 8.48583984 89.23999023 C8.49707886 90.0718132 8.50831787 90.90363617 8.51989746 91.76066589 C8.48043015 95.36844218 8.30415812 97.56912177 6.19619751 100.55531311 C4 102 4 102 0.375 101.875 C-3 101 -3 101 -5 99 C-5.56393549 96.16967509 -6.01405449 93.39507479 -6.3984375 90.5390625 C-6.52342621 89.65819977 -6.64841492 88.77733704 -6.77719116 87.86978149 C-7.19361557 84.91434759 -7.59707818 81.95730296 -8 79 C-8.29295813 76.89285688 -8.58625959 74.78576148 -8.87988281 72.67871094 C-9.65730672 67.06663947 -10.41394067 61.45197833 -11.16210938 55.8359375 C-11.47123682 53.52465553 -11.78342234 51.21378055 -12.09863281 48.90332031 C-15.11853413 26.76362969 -15.11853413 26.76362969 -15.88671875 15.63671875 C-15.94513947 14.91773407 -16.00356018 14.19874939 -16.06375122 13.45797729 C-16.29735905 9.23701648 -15.84514085 6.75762523 -13.1875 3.4375 C-9.15596284 -0.09608008 -5.2897946 -0.72759257 0 0 Z " fill="#A9AFC4" transform="translate(238,228)"/>
<path d="M0 0 C4.12025209 1.82057651 6.82371564 4.05044691 9 8 C9.60870349 15.89777403 8.83486293 23.93510877 8.1875 31.8125 C8.10056885 32.90908936 8.0136377 34.00567871 7.92407227 35.13549805 C7.08332924 45.48583399 6.08653486 55.82091362 5.0534668 66.15356445 C4.87037964 67.98987427 4.87037964 67.98987427 4.68359375 69.86328125 C4.56483887 71.04873535 4.44608398 72.23418945 4.32373047 73.45556641 C3.90331933 78.0585294 3.61788057 82.66704591 3.36352539 87.28198242 C2.99778405 90.01656824 2.50563634 91.70316403 1 94 C-2 96 -2 96 -5.5 95.875 C-9 95 -9 95 -10.68025208 93.30857849 C-12.30960917 90.45841395 -12.46758427 88.46259014 -12.6159668 85.18774414 C-12.70572029 83.42793968 -12.70572029 83.42793968 -12.79728699 81.63258362 C-12.84742447 80.36293259 -12.89756195 79.09328156 -12.94921875 77.78515625 C-13.01110868 76.45107541 -13.07410199 75.11704535 -13.13813782 73.7830658 C-13.26999353 70.97653307 -13.39264656 68.16980523 -13.50805664 65.36254883 C-13.65340026 61.82995824 -13.81464949 58.29834751 -13.98188591 54.76673317 C-14.33057683 47.39009241 -14.62777479 40.01341323 -14.87640381 32.63262939 C-14.9556201 30.30437452 -15.04133175 27.97632616 -15.13531494 25.64862061 C-15.24861017 22.72277002 -15.32806397 19.7983286 -15.39453125 16.87109375 C-15.43148605 16.04303726 -15.46844086 15.21498077 -15.5065155 14.36183167 C-15.55565749 10.2954597 -15.25231409 7.79763738 -12.6628418 4.57055664 C-8.31082102 0.36936229 -6.01663739 -0.51867564 0 0 Z " fill="#AAB0C4" transform="translate(308,235)"/>
<path d="M0 0 C3.94390751 1.31463584 4.9048325 3.06030776 6.98046875 6.546875 C9.17809953 11.83466093 8.91295951 17.3845955 7.046875 22.73046875 C3.94016392 27.69290611 -0.10685733 31.57893591 -4.25 35.6875 C-5.50103516 36.96850586 -5.50103516 36.96850586 -6.77734375 38.27539062 C-12.32120363 43.81489897 -16.50504255 47.51839742 -24.5 48.375 C-30.14762471 47.76989735 -34.66575996 45.64076163 -39 42 C-38.48647724 37.82399416 -36.22716164 35.82602118 -33.3125 32.9375 C-32.46300781 32.08027344 -31.61351562 31.22304687 -30.73828125 30.33984375 C-25.61594415 25.96283958 -21.71664344 24.59700139 -15 25 C-14.97421875 24.41992188 -14.9484375 23.83984375 -14.921875 23.2421875 C-14.14344846 12.52113109 -7.42479377 7.16974361 0 0 Z " fill="#5E6175" transform="translate(389,63)"/>
<path d="M0 0 C3.04221065 -0.08132642 6.0822238 -0.14065374 9.125 -0.1875 C9.9809375 -0.21263672 10.836875 -0.23777344 11.71875 -0.26367188 C17.8529846 -0.3344515 22.14903237 0.43412913 26.875 4.6875 C27.24625 5.120625 27.6175 5.55375 28 6 C28.41765625 5.566875 28.8353125 5.13375 29.265625 4.6875 C37.27257449 -2.12155941 47.11533361 -0.55587886 57 0 C57.21306838 6.80179821 56.22452358 11.50820308 51.5390625 16.58203125 C45.16614692 22.19472593 38.31057414 21.21727158 30.21044922 21.24023438 C28.13858834 21.24993637 26.06772203 21.28098486 23.99609375 21.3125 C22.67996094 21.31765625 21.36382812 21.3228125 20.0078125 21.328125 C18.80785645 21.3374707 17.60790039 21.34681641 16.37158203 21.35644531 C10.98545721 20.78702154 7.09114695 18.68345824 3.6875 14.5 C3.19636719 13.9121875 2.70523437 13.324375 2.19921875 12.71875 C-0.62167578 8.67577413 -0.07721266 4.7099724 0 0 Z " fill="#5F6276" transform="translate(279,71)"/>
<path d="M0 0 C0.33 0 0.66 0 1 0 C1.04651505 8.31949672 1.08196601 16.63893832 1.10362434 24.95853329 C1.11402371 28.82241882 1.12811186 32.68621481 1.15087891 36.55004883 C1.17274549 40.28479952 1.1845975 44.01946455 1.18975449 47.75427437 C1.19342561 49.17309478 1.20059382 50.59191096 1.21146011 52.0106945 C1.26794056 59.69682575 0.94295181 66.56089321 -1 74 C-1.33710599 77.23471924 -1.33287541 80.43634833 -1.3125 83.6875 C-1.31056641 84.98155762 -1.31056641 84.98155762 -1.30859375 86.30175781 C-1.19592553 93.89277933 0.07778594 100.63151277 2 108 C-2.62 108 -7.24 108 -12 108 C-14.35059039 99.66382135 -15.52253898 92.21170036 -15.4375 83.5625 C-15.42920166 82.46574951 -15.42090332 81.36899902 -15.41235352 80.23901367 C-15.24306281 72.13053118 -14.41221182 65.43941531 -11 58 C-10.72671875 57.4009082 -10.4534375 56.80181641 -10.171875 56.18457031 C-5.02755025 45.05545548 -5.02755025 45.05545548 -2.42675781 42.3840332 C-0.22056772 38.69761187 -0.51985695 35.08091412 -0.48828125 30.859375 C-0.47033005 29.97719299 -0.45237885 29.09501099 -0.43388367 28.18609619 C-0.37979029 25.37411245 -0.34588824 22.56229835 -0.3125 19.75 C-0.27932605 17.84112223 -0.24483632 15.93226685 -0.20898438 14.0234375 C-0.12406439 9.34908075 -0.05724859 4.67477424 0 0 Z " fill="#C6CBD6" transform="translate(358,249)"/>
<path d="M0 0 C3.43615111 2.12017834 5.80717883 4.09622164 7 8 C7.46225901 12.77667642 7.49973779 15.01903323 5.3125 19.3125 C1.73770791 23.4669881 -0.43776011 24.82641779 -5.9375 25.4375 C-10.2150513 25.25994127 -12.73416458 23.81013746 -16 21 C-18.38713778 18.0558634 -18.96192889 16.34898522 -19.375 12.5625 C-18.86943796 7.75966067 -17.61392138 4.46261625 -14 1.1875 C-9.30731286 -1.59878299 -5.15206703 -1.17709791 0 0 Z M-10.3125 7.625 C-12.31144032 9.93917754 -12.31144032 9.93917754 -11.9375 13.125 C-11.23305313 16.29174932 -11.23305313 16.29174932 -8 18 C-4.92334973 17.91778291 -4.92334973 17.91778291 -2 17 C0.32038095 14.17431454 0.32038095 14.17431454 -0.1875 10.9375 C-0.73754498 7.70259047 -0.73754498 7.70259047 -4 6 C-7.925598 5.61670299 -7.925598 5.61670299 -10.3125 7.625 Z " fill="#5D6074" transform="translate(81,377)"/>
<path d="M0 0 C0 4.29 0 8.58 0 13 C-0.95519531 13.27972656 -1.91039062 13.55945313 -2.89453125 13.84765625 C-10.61552707 16.20762851 -17.13607027 18.88271564 -23.828125 23.546875 C-26 25 -26 25 -29 26 C-28.67 18.41 -28.34 10.82 -28 3 C-27.67 3 -27.34 3 -27 3 C-26.67 4.65 -26.34 6.3 -26 8 C-25.34515625 7.67386719 -24.6903125 7.34773438 -24.015625 7.01171875 C-16.513695 3.41969295 -8.44750983 0 0 0 Z " fill="#D9DCE0" transform="translate(406,260)"/>
<path d="M0 0 C1.07264402 14.18273765 1.07264402 14.18273765 -1.27734375 18.1640625 C-2.45465638 19.20522333 -3.67139303 20.20300951 -4.91796875 21.16015625 C-7.67742071 23.5986213 -9.4377664 26.4979894 -11.3125 29.625 C-11.96863281 30.71039063 -12.62476563 31.79578125 -13.30078125 32.9140625 C-14.76548471 35.57409867 -15.95765822 38.15340164 -17 41 C-17.33 41 -17.66 41 -18 41 C-19.90432774 16.86697394 -19.90432774 16.86697394 -15.76171875 10.96484375 C-13.17936497 8.14523875 -10.23462578 6.03536505 -7 4 C-5.89724374 3.24914609 -4.79565393 2.4965758 -3.6953125 1.7421875 C-1 0 -1 0 0 0 Z " fill="#8E96AF" transform="translate(377,271)"/>
<path d="M0 0 C1.55289162 3.4711695 1.70702407 6.68363489 1.0625 10.375 C-0.5 13.3125 -0.5 13.3125 -2.9375 15.375 C-6.82855194 16.50694238 -8.9431423 16.80438174 -12.6875 15.1875 C-16.03450907 12.49129825 -17.68761076 10.8118631 -18.4375 6.5 C-17.72931607 2.07385045 -16.13937705 0.50410712 -12.9375 -2.625 C-8.68519599 -4.89289547 -3.50342577 -2.93835709 0 0 Z M-8.9375 3.375 C-9.5975 4.695 -10.2575 6.015 -10.9375 7.375 C-9.4525 8.365 -9.4525 8.365 -7.9375 9.375 C-7.2775 9.045 -6.6175 8.715 -5.9375 8.375 C-5.9375 7.055 -5.9375 5.735 -5.9375 4.375 C-6.9275 4.045 -7.9175 3.715 -8.9375 3.375 Z " fill="#5D6074" transform="translate(114.9375,338.625)"/>
<path d="M0 0 C4 2 4 2 4.90795898 3.93652344 C5 6 5 6 2.47265625 9.015625 C1.34833988 10.10667758 0.21096066 11.18439166 -0.9375 12.25 C-1.8027832 13.08144531 -1.8027832 13.08144531 -2.68554688 13.9296875 C-4.11277729 15.29794145 -5.55502058 16.6505038 -7 18 C-10.16115776 16.63016497 -10.9927092 16.0109362 -13 13 C-8.71 8.71 -4.42 4.42 0 0 Z " fill="#5F6275" transform="translate(158,116)"/>
<path d="M0 0 C1.875 1.125 1.875 1.125 3 3 C3.54400387 6.65259739 3.43774093 8.3433886 1.375 11.4375 C-1 13 -1 13 -4.0625 13 C-7 12 -7 12 -8.9375 10.3125 C-10.39615475 7.13778084 -10.00471852 5.30121799 -9 2 C-5.53076119 -0.31282587 -4.07794425 -0.42478586 0 0 Z " fill="#EDEDEE" transform="translate(203,420)"/>
<path d="M0 0 C6.27 0 12.54 0 19 0 C19 2.31 19 4.62 19 7 C12.73 7 6.46 7 0 7 C0 4.69 0 2.38 0 0 Z " fill="#5E6075" transform="translate(157,142)"/>
<path d="M0 0 C2.31 0 4.62 0 7 0 C7 6.27 7 12.54 7 19 C4.69 19 2.38 19 0 19 C0 12.73 0 6.46 0 0 Z " fill="#5D6174" transform="translate(130,103)"/>
<path d="M0 0 C1.875 1.0625 1.875 1.0625 3 3 C3.4375 6.5 3.4375 6.5 3 10 C1.375 12 1.375 12 -1 13 C-4.125 12.875 -4.125 12.875 -7 12 C-9.31282587 8.53076119 -9.42478586 7.07794425 -9 3 C-6.79086995 -0.68188342 -4.01844539 -0.50230567 0 0 Z " fill="#EFEFF0" transform="translate(378,420)"/>
<path d="M0 0 C0.99 0.33 1.98 0.66 3 1 C3.45858928 6.73236598 2.65645061 9.55296547 -1 14 C-3.75 16.375 -3.75 16.375 -6 18 C-7 17 -7 17 -7.3125 13.3125 C-7.25551366 8.01277044 -4.79118106 4.91912257 -1.25 1.125 C-0.8375 0.75375 -0.425 0.3825 0 0 Z " fill="#D0D3DD" transform="translate(388,73)"/>
<path d="M0 0 C0.66 0.33 1.32 0.66 2 1 C0.27592413 5.38855677 -2.82973873 7.91486937 -7 10 C-9.6723621 10.13415472 -12.32250488 10.04318541 -15 10 C-15 7 -15 7 -13.5390625 5.4296875 C-12.90742188 4.91664062 -12.27578125 4.40359375 -11.625 3.875 C-10.99851562 3.35679688 -10.37203125 2.83859375 -9.7265625 2.3046875 C-6.42009207 -0.19386708 -4.10112402 -0.17088017 0 0 Z " fill="#D0D3DD" transform="translate(375,94)"/>
<path d="M0 0 C0.90105469 0.00902344 1.80210937 0.01804687 2.73046875 0.02734375 C3.41753906 0.03894531 4.10460937 0.05054687 4.8125 0.0625 C3.53404222 4.0044115 2.40113298 5.9486477 -1.1875 8.0625 C-3.984375 8.35546875 -3.984375 8.35546875 -6.9375 8.25 C-7.92234375 8.22292969 -8.9071875 8.19585937 -9.921875 8.16796875 C-10.66953125 8.13316406 -11.4171875 8.09835938 -12.1875 8.0625 C-11.47614254 4.80770406 -10.82477752 3.19260877 -8.1875 1.0625 C-5.17259443 0.05753148 -3.14568308 -0.04085303 0 0 Z " fill="#D3D6DF" transform="translate(324.1875,76.9375)"/>
<path d="M0 0 C5.09636993 -0.36258758 8.90042893 -0.54014017 13.5625 1.75 C16.08735442 4.08063485 16.40137646 4.79837298 17 8 C7.11310996 8.62334158 7.11310996 8.62334158 2.875 6.25 C0.98830347 3.98596416 0.57649923 2.8001391 0 0 Z " fill="#D3D7DF" transform="translate(286,77)"/>
<path d="M0 0 C0 2.97 0 5.94 0 9 C1.65 9 3.3 9 5 9 C4.67 9.99 4.34 10.98 4 12 C-1.25490196 13.31372549 -1.25490196 13.31372549 -4.375 12 C-6 10 -6 10 -6.4375 6.5 C-6 3 -6 3 -4.6875 1.0625 C-3 0 -3 0 0 0 Z " fill="#E9E9EB" transform="translate(137,420)"/>
<path d="M0 0 C2.31 0.33 4.62 0.66 7 1 C6.75 3.875 6.75 3.875 6 7 C3.9375 8.375 3.9375 8.375 2 9 C0.68 8.01 -0.64 7.02 -2 6 C-1.34 4.02 -0.68 2.04 0 0 Z " fill="#ACB2C6" transform="translate(263,160)"/>
<path d="M0 0 C2.04119788 1.61594832 4.04072937 3.2856382 6 5 C6 5.66 6 6.32 6 7 C1.61538462 10 1.61538462 10 -1 10 C-2.625 7.5 -2.625 7.5 -4 5 C-2.68 3.35 -1.36 1.7 0 0 Z " fill="#ACB1C4" transform="translate(262,144)"/>
<path d="M0 0 C2.31 0.33 4.62 0.66 7 1 C7 3.31 7 5.62 7 8 C4.69 8 2.38 8 0 8 C0 5.36 0 2.72 0 0 Z " fill="#A8AFC3" transform="translate(317,163)"/>
<path d="M0 0 C3.465 1.485 3.465 1.485 7 3 C6.25 5.4375 6.25 5.4375 5 8 C3.0625 8.9375 3.0625 8.9375 1 9 C0.01 8.34 -0.98 7.68 -2 7 C-1.34 4.69 -0.68 2.38 0 0 Z " fill="#ABB1C7" transform="translate(390,149)"/>
<path d="M0 0 C2.31 0.33 4.62 0.66 7 1 C7 3.31 7 5.62 7 8 C4.36 7.67 1.72 7.34 -1 7 C-0.67 4.69 -0.34 2.38 0 0 Z " fill="#A7AEC4" transform="translate(229,141)"/>
<path d="M0 0 C2.64 0.33 5.28 0.66 8 1 C7.01 3.64 6.02 6.28 5 9 C3 8 1 7 -1 6 C-0.67 4.02 -0.34 2.04 0 0 Z " fill="#AEB3C6" transform="translate(303,101)"/>
<path d="M0 0 C1.98 0 3.96 0 6 0 C7.2077558 3.62326739 6.54311128 4.64146369 5 8 C2.625 7.6875 2.625 7.6875 0 7 C-0.66 6.01 -1.32 5.02 -2 4 C-1.34 2.68 -0.68 1.36 0 0 Z " fill="#A8ADC4" transform="translate(429,172)"/>
<path d="M0 0 C0.33 1.98 0.66 3.96 1 6 C-0.65 6.66 -2.3 7.32 -4 8 C-5.32 6.68 -6.64 5.36 -8 4 C-5.97675095 -0.48005146 -4.79569304 -1.43870791 0 0 Z " fill="#A9B0C4" transform="translate(332,151)"/>
<path d="M0 0 C0 2.31 0 4.62 0 7 C-1.98 7.33 -3.96 7.66 -6 8 C-7.4606285 5.35261084 -8 4.10551666 -8 1 C-5.10765685 0.17361624 -3.11257569 0 0 0 Z " fill="#A8AEC3" transform="translate(233,109)"/>
<path d="M0 0 C0.99 0.33 1.98 0.66 3 1 C4.1875 4.0625 4.1875 4.0625 5 7 C2.35261084 8.4606285 1.10551666 9 -2 9 C-2.66 7.35 -3.32 5.7 -4 4 C-2.68 2.68 -1.36 1.36 0 0 Z " fill="#A8AEC5" transform="translate(430,107)"/>
<path d="M0 0 C0.86625 0.556875 0.86625 0.556875 1.75 1.125 C1.75 5.125 1.75 5.125 -0.25 8.125 C-2.71800047 6.97326645 -4.29783565 6.07716435 -6.25 4.125 C-6.25 3.135 -6.25 2.145 -6.25 1.125 C-2.80384615 -1.09038462 -2.80384615 -1.09038462 0 0 Z " fill="#A8AEC4" transform="translate(407.25,177.875)"/>
<path d="M0 0 C0.33 2.64 0.66 5.28 1 8 C-1.31 8 -3.62 8 -6 8 C-6.33 6.02 -6.66 4.04 -7 2 C-2.25 0 -2.25 0 0 0 Z " fill="#A9AFC3" transform="translate(404,162)"/>
<path d="M0 0 C0.66 1.65 1.32 3.3 2 5 C0.35 6.32 -1.3 7.64 -3 9 C-5.0625 6.6875 -5.0625 6.6875 -7 4 C-6.67 3.01 -6.34 2.02 -6 1 C-4 0 -4 0 0 0 Z " fill="#A8AEC3" transform="translate(221,134)"/>
<path d="M0 0 C3.26954202 0.56371414 4.82575883 1.49962266 7 4 C6.34 5.32 5.68 6.64 5 8 C3.02 8 1.04 8 -1 8 C-1.93065133 5.39417629 -2.14917407 4.35801776 -1.0625 1.75 C-0.711875 1.1725 -0.36125 0.595 0 0 Z " fill="#AAB0C4" transform="translate(215,118)"/>
<path d="M0 0 C2.64 0.33 5.28 0.66 8 1 C7.34 3.31 6.68 5.62 6 8 C3.03 7.505 3.03 7.505 0 7 C0 4.69 0 2.38 0 0 Z " fill="#A9AEC4" transform="translate(414,100)"/>
<path d="M0 0 C2.31 0 4.62 0 7 0 C7 2.31 7 4.62 7 7 C4.69 7 2.38 7 0 7 C0 4.69 0 2.38 0 0 Z " fill="#A8AFC3" transform="translate(317,180)"/>
<path d="M0 0 C2.31 0 4.62 0 7 0 C7 2.31 7 4.62 7 7 C4.69 7 2.38 7 0 7 C0 4.69 0 2.38 0 0 Z " fill="#A9AEC3" transform="translate(234,169)"/>
<path d="M0 0 C2.31 0 4.62 0 7 0 C7 2.31 7 4.62 7 7 C4.69 7 2.38 7 0 7 C0 4.69 0 2.38 0 0 Z " fill="#A8AEC3" transform="translate(429,156)"/>
<path d="M0 0 C2.31 0 4.62 0 7 0 C7 2.31 7 4.62 7 7 C4.69 7 2.38 7 0 7 C0 4.69 0 2.38 0 0 Z " fill="#A9AEC3" transform="translate(373,149)"/>
<path d="M0 0 C2.31 0 4.62 0 7 0 C7 2.31 7 4.62 7 7 C4.69 7 2.38 7 0 7 C0 4.69 0 2.38 0 0 Z " fill="#A9AEC3" transform="translate(357,149)"/>
<path d="M0 0 C2.31 0 4.62 0 7 0 C7 2.31 7 4.62 7 7 C4.69 7 2.38 7 0 7 C0 4.69 0 2.38 0 0 Z " fill="#A9AEC3" transform="translate(341,149)"/>
<path d="M0 0 C2.31 0 4.62 0 7 0 C7 2.31 7 4.62 7 7 C4.69 7 2.38 7 0 7 C0 4.69 0 2.38 0 0 Z " fill="#A7AEC5" transform="translate(245,142)"/>
<path d="M0 0 C2.31 0 4.62 0 7 0 C7 2.31 7 4.62 7 7 C4.69 7 2.38 7 0 7 C0 4.69 0 2.38 0 0 Z " fill="#A9AEC3" transform="translate(429,140)"/>
<path d="M0 0 C2.31 0 4.62 0 7 0 C7 2.31 7 4.62 7 7 C4.69 7 2.38 7 0 7 C0 4.69 0 2.38 0 0 Z " fill="#A9AEC3" transform="translate(429,124)"/>
<path d="M0 0 C2.31 0 4.62 0 7 0 C7 2.31 7 4.62 7 7 C4.69 7 2.38 7 0 7 C0 4.69 0 2.38 0 0 Z " fill="#A9AEC3" transform="translate(274,109)"/>
<path d="M0 0 C2.31 0 4.62 0 7 0 C7 2.31 7 4.62 7 7 C4.69 7 2.38 7 0 7 C0 4.69 0 2.38 0 0 Z " fill="#A9AEC3" transform="translate(258,109)"/>
<path d="M0 0 C2.31 0 4.62 0 7 0 C7 2.31 7 4.62 7 7 C4.69 7 2.38 7 0 7 C0 4.69 0 2.38 0 0 Z " fill="#A9AEC3" transform="translate(242,109)"/>
<path d="M0 0 C2.31 0 4.62 0 7 0 C7 2.31 7 4.62 7 7 C4.69 7 2.38 7 0 7 C0 4.69 0 2.38 0 0 Z " fill="#A9AEC4" transform="translate(398,100)"/>
<path d="M0 0 C1.99954746 -0.04254356 4.00041636 -0.04080783 6 0 C7 1 7 1 7.0625 4.0625 C7.041875 5.031875 7.02125 6.00125 7 7 C4.69 7 2.38 7 0 7 C0 4.69 0 2.38 0 0 Z " fill="#AAB0C5" transform="translate(290,109)"/>
<path d="M0 0 C1.98 0 3.96 0 6 0 C6.66 1.98 7.32 3.96 8 6 C5.36 6.66 2.72 7.32 0 8 C0 5.36 0 2.72 0 0 Z " fill="#A8AEC5" transform="translate(417,182)"/>
<path d="M0 0 C1.98 0 3.96 0 6 0 C6.33 2.31 6.66 4.62 7 7 C4.69 7 2.38 7 0 7 C0 4.69 0 2.38 0 0 Z " fill="#AAB0C5" transform="translate(250,169)"/>
<path d="M0 0 C3.63 0 7.26 0 11 0 C10.67 0.99 10.34 1.98 10 3 C7.25 3.75 7.25 3.75 4 4 C1.625 2.0625 1.625 2.0625 0 0 Z " fill="#DBDCDF" transform="translate(308,429)"/>
<path d="M0 0 C0.66 0.99 1.32 1.98 2 3 C-1.3 3 -4.6 3 -8 3 C-8 2.34 -8 1.68 -8 1 C-5.21136993 -0.39431504 -3.07921132 -0.25660094 0 0 Z " fill="#EFEFF0" transform="translate(317,420)"/>
</svg>
